<svg width="14" height="14" viewBox="0 0 14 14" fill="none" xmlns="http://www.w3.org/2000/svg">
<path d="M12.25 0.25H1.75C0.9175 0.25 0.25 0.925 0.25 1.75V12.25C0.25 13.075 0.9175 13.75 1.75 13.75H12.25C13.075 13.75 13.75 13.075 13.75 12.25V1.75C13.75 0.925 13.0825 0.25 12.25 0.25ZM12.25 12.25H1.75V3.25H12.25V12.25ZM10 7H4C3.5875 7 3.25 6.6625 3.25 6.25C3.25 5.8375 3.5875 5.5 4 5.5H10C10.4125 5.5 10.75 5.8375 10.75 6.25C10.75 6.6625 10.4125 7 10 7ZM7 10H4C3.5875 10 3.25 9.6625 3.25 9.25C3.25 8.8375 3.5875 8.5 4 8.5H7C7.4125 8.5 7.75 8.8375 7.75 9.25C7.75 9.6625 7.4125 10 7 10Z" fill="#B243E7"/>
</svg>
