<svg width="18" height="19" viewBox="0 0 18 19" fill="none" xmlns="http://www.w3.org/2000/svg">
<path d="M8.1572 11.6725L6.4897 13.3399C6.13818 13.6915 5.57934 13.6915 5.2188 13.349C5.11965 13.2498 5.02051 13.1597 4.92136 13.0605C3.99297 12.1231 3.15472 11.1407 2.4066 10.1131C1.66749 9.08558 1.0726 8.05805 0.639957 7.03953C0.216323 6.01199 0 5.02952 0 4.09212C0 3.4792 0.108162 2.89333 0.324485 2.35252C0.540808 1.8027 0.883321 1.29794 1.36103 0.847267C1.9379 0.279418 2.56884 0 3.23584 0C3.48822 0 3.74059 0.0540809 3.96593 0.162243C4.20028 0.270404 4.40759 0.432647 4.56983 0.666997L6.66096 3.6144C6.8232 3.83974 6.94038 4.04705 7.0215 4.24535C7.10262 4.43463 7.14769 4.62391 7.14769 4.79517C7.14769 5.01149 7.08459 5.22782 6.9584 5.43513C6.84123 5.64244 6.66997 5.85876 6.45365 6.07508L5.76862 6.78715C5.66948 6.8863 5.62441 7.00347 5.62441 7.14769C5.62441 7.2198 5.63342 7.28289 5.65145 7.355C5.67849 7.4271 5.70553 7.48119 5.72356 7.53527C5.8858 7.83271 6.16522 8.22029 6.56181 8.68899C6.96742 9.15769 7.40006 9.63541 7.86876 10.1131C7.9589 10.2033 8.05805 10.2934 8.14818 10.3835C8.50872 10.7351 8.51774 11.3119 8.1572 11.6725Z" fill="#23AA49"/>
<path d="M17.9998 14.7188C17.9998 14.9712 17.9547 15.2326 17.8646 15.485C17.8375 15.5571 17.8105 15.6292 17.7744 15.7013C17.6212 16.0258 17.4229 16.3322 17.1615 16.6207C16.7199 17.1074 16.2331 17.4589 15.6833 17.6843C15.6743 17.6843 15.6653 17.6933 15.6563 17.6933C15.1245 17.9096 14.5476 18.0268 13.9257 18.0268C13.0063 18.0268 12.0238 17.8105 10.9873 17.3688C9.95073 16.9271 8.91418 16.3322 7.88665 15.5841C7.53512 15.3227 7.1836 15.0613 6.8501 14.7819L9.7975 11.8345C10.0499 12.0238 10.2752 12.168 10.4645 12.2672C10.5096 12.2852 10.5636 12.3122 10.6267 12.3393C10.6989 12.3663 10.771 12.3753 10.8521 12.3753C11.0053 12.3753 11.1225 12.3212 11.2216 12.2221L11.9067 11.5461C12.132 11.3208 12.3483 11.1495 12.5556 11.0413C12.7629 10.9151 12.9702 10.8521 13.1956 10.8521C13.3668 10.8521 13.5471 10.8881 13.7454 10.9692C13.9437 11.0503 14.151 11.1675 14.3764 11.3208L17.3598 13.4389C17.5942 13.6012 17.7564 13.7904 17.8556 14.0158C17.9457 14.2411 17.9998 14.4665 17.9998 14.7188Z" fill="#23AA49"/>
</svg>
