<svg width="21" height="21" viewBox="0 0 21 21" fill="none" xmlns="http://www.w3.org/2000/svg">
<path fill-rule="evenodd" clip-rule="evenodd" d="M1.5 1.5V8.379L12 18.879L18.879 12L8.379 1.5H1.5ZM0 1.5C0 1.10218 0.158035 0.720644 0.43934 0.43934C0.720644 0.158035 1.10218 0 1.5 0H8.379C8.77679 8.49561e-05 9.15826 0.158176 9.4395 0.4395L19.9395 10.9395C20.2207 11.2208 20.3787 11.6023 20.3787 12C20.3787 12.3977 20.2207 12.7792 19.9395 13.0605L13.0605 19.9395C12.7792 20.2207 12.3977 20.3787 12 20.3787C11.6023 20.3787 11.2208 20.2207 10.9395 19.9395L0.4395 9.4395C0.158176 9.15826 8.49561e-05 8.77679 0 8.379V1.5Z" fill="#DBDBDB"/>
<path fill-rule="evenodd" clip-rule="evenodd" d="M5.25 6C5.44891 6 5.63968 5.92098 5.78033 5.78033C5.92098 5.63968 6 5.44891 6 5.25C6 5.05109 5.92098 4.86032 5.78033 4.71967C5.63968 4.57902 5.44891 4.5 5.25 4.5C5.05109 4.5 4.86032 4.57902 4.71967 4.71967C4.57902 4.86032 4.5 5.05109 4.5 5.25C4.5 5.44891 4.57902 5.63968 4.71967 5.78033C4.86032 5.92098 5.05109 6 5.25 6ZM5.25 7.5C5.84674 7.5 6.41903 7.26295 6.84099 6.84099C7.26295 6.41903 7.5 5.84674 7.5 5.25C7.5 4.65326 7.26295 4.08097 6.84099 3.65901C6.41903 3.23705 5.84674 3 5.25 3C4.65326 3 4.08097 3.23705 3.65901 3.65901C3.23705 4.08097 3 4.65326 3 5.25C3 5.84674 3.23705 6.41903 3.65901 6.84099C4.08097 7.26295 4.65326 7.5 5.25 7.5Z" fill="#DBDBDB"/>
</svg>
