<svg width="20" height="28" viewBox="0 0 20 28" fill="none" xmlns="http://www.w3.org/2000/svg">
<path d="M17.24 3.5825H16.84L13.46 0.2025C13.19 -0.0675 12.75 -0.0675 12.47 0.2025C12.2 0.4725 12.2 0.9125 12.47 1.1925L14.86 3.5825H5.14L7.53 1.1925C7.8 0.9225 7.8 0.4825 7.53 0.2025C7.26 -0.0675 6.82 -0.0675 6.54 0.2025L3.17 3.5825H2.77C1.87 3.5825 0 3.5825 0 6.1425C0 7.1125 0.2 7.7525 0.62 8.1725C0.86 8.4225 1.15 8.5525 1.46 8.6225C1.75 8.6925 2.06 8.7025 2.36 8.7025H17.64C17.95 8.7025 18.24 8.6825 18.52 8.6225C19.36 8.4225 20 7.8225 20 6.1425C20 3.5825 18.13 3.5825 17.24 3.5825Z" fill="#23AA49"/>
<path d="M17.0506 10.0024H2.87064C2.25064 10.0024 1.78064 10.5524 1.88064 11.1624L2.72064 16.3024C3.00064 18.0224 3.75064 20.0024 7.08064 20.0024H12.6906C16.0606 20.0024 16.6606 18.3124 17.0206 16.4224L18.0306 11.1924C18.1506 10.5724 17.6806 10.0024 17.0506 10.0024ZM8.61064 16.4524C8.61064 16.8424 8.30064 17.1524 7.92064 17.1524C7.53064 17.1524 7.22064 16.8424 7.22064 16.4524V13.1524C7.22064 12.7724 7.53064 12.4524 7.92064 12.4524C8.30064 12.4524 8.61064 12.7724 8.61064 13.1524V16.4524ZM12.8906 16.4524C12.8906 16.8424 12.5806 17.1524 12.1906 17.1524C11.8106 17.1524 11.4906 16.8424 11.4906 16.4524V13.1524C11.4906 12.7724 11.8106 12.4524 12.1906 12.4524C12.5806 12.4524 12.8906 12.7724 12.8906 13.1524V16.4524Z" fill="#23AA49"/>
<circle cx="10" cy="26" r="2" fill="#23AA49"/>
</svg>
