<svg width="16" height="16" viewBox="0 0 16 16" fill="none" xmlns="http://www.w3.org/2000/svg">
<path d="M5.07362 15.8746C2.34853 15.8746 0.128906 13.655 0.128906 10.9299C0.128906 8.70297 1.62331 6.73974 3.76968 6.16102C4.04073 6.08777 4.3191 6.22695 4.42165 6.49067C4.86851 7.61147 5.82082 8.46856 6.98558 8.78355C7.63022 8.95937 8.37743 8.95937 9.00742 8.78355C9.27846 8.7103 9.56416 8.84948 9.66671 9.1132C9.89381 9.69192 10.011 10.3073 10.011 10.9373C10.011 12.3438 9.41032 13.6843 8.36277 14.6147C7.46906 15.4205 6.29698 15.8746 5.07362 15.8746ZM3.62317 7.36241C2.1947 7.94845 1.22773 9.35494 1.22773 10.9299C1.22773 13.047 2.95655 14.7758 5.07362 14.7758C6.02594 14.7758 6.9343 14.4242 7.63755 13.7869C8.45801 13.0616 8.91951 12.0214 8.91951 10.9299C8.91951 10.593 8.87556 10.2706 8.79498 9.95564C8.10638 10.0655 7.35918 10.0289 6.69988 9.84575C5.37397 9.47948 4.26049 8.57112 3.62317 7.36241Z" fill="#70AEFD"/>
<path d="M8.0038 10.0144C7.54962 10.0144 7.11009 9.95583 6.69986 9.83862C5.21278 9.42839 3.97477 8.32957 3.40338 6.88644C3.17629 6.31505 3.05908 5.69971 3.05908 5.06972C3.05908 2.34463 5.27871 0.125 8.0038 0.125C10.7289 0.125 12.9485 2.34463 12.9485 5.06972C12.9485 5.69971 12.8313 6.31505 12.6042 6.89377C12.0328 8.32957 10.8021 9.43572 9.30774 9.84595C8.89751 9.95583 8.45798 10.0144 8.0038 10.0144ZM8.0038 1.22383C5.88673 1.22383 4.15791 2.95265 4.15791 5.06972C4.15791 5.56053 4.24581 6.03668 4.42895 6.48354C4.87581 7.60434 5.82812 8.46143 6.99288 8.77642C7.63752 8.95224 8.38473 8.95224 9.01472 8.77642C10.1795 8.46143 11.1391 7.59702 11.5786 6.48354C11.7545 6.03668 11.8497 5.56053 11.8497 5.06972C11.8497 2.95265 10.1209 1.22383 8.0038 1.22383Z" fill="#70AEFD"/>
<path d="M10.9342 15.875C9.71085 15.875 8.53876 15.4208 7.63773 14.6076C7.52052 14.5051 7.45459 14.3512 7.45459 14.1974C7.45459 14.0436 7.52052 13.8897 7.63773 13.7872C8.45086 13.0693 8.91969 12.0291 8.91969 10.9302C8.91969 10.4394 8.83179 9.96327 8.64865 9.51641C8.59004 9.3699 8.59737 9.20874 8.67062 9.06956C8.74388 8.93037 8.86841 8.82782 9.01492 8.78386C10.1797 8.46887 11.132 7.61178 11.5788 6.49098C11.6814 6.22726 11.9671 6.0954 12.2308 6.16133C14.3772 6.74737 15.8716 8.70328 15.8716 10.9302C15.8789 13.6553 13.6593 15.875 10.9342 15.875ZM8.82446 14.1461C9.44713 14.5564 10.1724 14.7761 10.9342 14.7761C13.0513 14.7761 14.7801 13.0473 14.7801 10.9302C14.7801 9.35525 13.8131 7.94876 12.3847 7.36272C11.8426 8.39561 10.9342 9.21607 9.85003 9.6556C9.95991 10.0658 10.0185 10.498 10.0185 10.9302C10.0185 12.117 9.59364 13.2597 8.82446 14.1461Z" fill="#70AEFD"/>
</svg>
